<?xml version="1.0" encoding="utf-8"?><svg viewBox="0 0 146 37" xmlns="http://www.w3.org/2000/svg" xmlns:xlink="http://www.w3.org/1999/xlink"><style>:root>svg{display:none}:root>svg:target{display:block}</style><svg fill="none" viewBox="0 0 146 31" id="Lorem" xmlns="http://www.w3.org/2000/svg"><path d="M.526 30v-.756l3.312-.54V2.496L.526 1.992V1.2H11.11v.792l-3.312.504v26.64h10.764l2.952-7.92h.972V30H.526Zm39.097.72c-2.615 0-4.956-.636-7.02-1.908-2.064-1.272-3.672-3.048-4.824-5.328-1.151-2.304-1.727-4.932-1.727-7.884s.576-5.568 1.727-7.848c1.152-2.304 2.76-4.092 4.824-5.364C34.667 1.116 37.007.48 39.623.48c2.617 0 4.957.636 7.02 1.908 2.065 1.272 3.672 3.06 4.825 5.364 1.151 2.28 1.727 4.896 1.727 7.848s-.575 5.58-1.727 7.884c-1.153 2.28-2.76 4.056-4.825 5.328-2.063 1.272-4.404 1.908-7.02 1.908Zm0-.828c1.729 0 3.277-.456 4.645-1.368 1.392-.912 2.483-2.232 3.276-3.96.792-1.752 1.188-3.816 1.188-6.192v-5.544c0-2.376-.396-4.428-1.188-6.156-.792-1.752-1.884-3.084-3.276-3.996-1.368-.912-2.916-1.368-4.645-1.368-1.752 0-3.311.456-4.68 1.368-1.367.912-2.447 2.244-3.24 3.996-.791 1.728-1.188 3.78-1.188 6.156v5.544c0 2.376.396 4.44 1.188 6.192.793 1.728 1.872 3.048 3.24 3.96 1.369.912 2.928 1.368 4.68 1.368Zm38.964.468c-1.344 0-2.353-.324-3.025-.972-.671-.648-1.127-1.752-1.367-3.312l-.684-4.824c-.24-1.632-.804-2.904-1.692-3.816-.865-.936-2.22-1.404-4.069-1.404h-2.808v12.672l3.313.54V30H57.67v-.756l3.312-.54V2.496l-3.313-.504V1.2h10.08c3.912 0 6.745.612 8.496 1.836C78 4.26 78.876 6.12 78.876 8.616c0 4.128-2.496 6.516-7.489 7.164v.216c1.849.264 3.325.924 4.428 1.98 1.129 1.056 1.837 2.46 2.125 4.212l.468 3.096c.192 1.344.407 2.256.648 2.736.263.48.66.72 1.188.72.36 0 .744-.108 1.151-.324.408-.24.792-.54 1.152-.9l.612.648c-.695.792-1.415 1.356-2.16 1.692a5.791 5.791 0 0 1-2.412.504Zm-9.612-15.192c1.752 0 3.108-.528 4.068-1.584.983-1.08 1.475-2.664 1.475-4.752v-.756c0-3.984-2.255-5.976-6.767-5.976h-2.809v13.068h4.033ZM84.907 30v-.756l3.312-.54V2.496l-3.312-.504V1.2h21.672v8.244h-.972L102.835 2.1H92.179v12.96h4.68l2.124-5.22h.936v11.376h-.936l-2.16-5.292h-4.644v13.212h11.304l2.952-7.92h.936V30H84.907Zm42.001.36L116.18 2.496v25.308l3.456 1.44V30h-7.704v-.756l3.384-1.44V2.496l-3.312-.504V1.2h7.956l9.036 23.112L138.212 1.2h7.272v.792l-3.312.504v26.208l3.312.54V30H134.9v-.756l3.312-.54V3.576L127.556 30.36h-.648Z" fill="#fff"/></svg><svg fill="none" viewBox="0 0 40 37" id="main__benefits-img" xmlns="http://www.w3.org/2000/svg"><path d="M36 18.5C36 28.165 28.165 36 18.5 36S1 28.165 1 18.5 8.835 1 18.5 1 36 8.835 36 18.5Z" stroke="#EFCFAD" stroke-width="2"/><path d="M36.374 12.507A18.435 18.435 0 0 0 34.194 8L18 24.867l.033 1.877.764-.005 17.577-14.232Z" fill="#A4907D"/><path d="M38.977 6.053c-.237-1.228-2.5-2-2.5-2-.45-.445-3.05 2.055-3.5 2.5l-14.927 15.5-6.573-7.5c-.452-.445-1.55-.945-2-.5l-2.14 1.43a1.13 1.13 0 0 0 0 1.61l9.76 9.643c.261.257.614.36.953.32.338.04.691-.063.951-.32L37.006 8.947c.45-.445 2.23-1.552 1.97-2.894Z" fill="#fff"/><path d="m19 26.782 18.006-17.79c1.47-.893 2.42-2.448 1.97-2.893-.45-.445-2.509.75-2.509.75l-18.52 18.217-10.2-9.942-.41.404a1.13 1.13 0 0 0 0 1.61l9.76 9.644c.26.257.613.36.952.32.34.04.692-.063.952-.32Z" fill="#EFCFAD"/></svg></svg>